<svg width="1201" height="356" viewBox="0 0 1201 356" fill="none" xmlns="http://www.w3.org/2000/svg">
<g clip-path="url(#clip0_18_215)">
<path d="M0.185059 63.4309H53.429V86.5053H54.0835C64.0802 69.2894 86.6678 58.5668 106.685 58.5668C162.523 58.5668 167.045 99.5041 167.045 123.872V232.056H112.171V150.517C112.171 127.443 114.754 104.057 84.7994 104.057C64.1397 104.057 55.0475 121.596 55.0475 140.118V232.056H0.185059V63.4309Z" fill="#F36600"/>
<path d="M286.101 130.378C285.125 111.509 271.891 95.9339 253.505 95.9339C234.13 95.9339 221.23 109.903 218.005 130.378H286.101ZM217.969 161.239C218.945 184.302 232.155 199.577 255.397 199.577C268.63 199.577 281.578 193.419 286.708 181.067H338.024C328.027 220.052 292.194 236.944 254.719 236.944C200.177 236.944 163.083 203.806 163.083 147.282C163.083 95.6224 204.069 58.6267 253.445 58.6267C313.472 58.6267 343.486 104.152 340.892 161.299L217.969 161.239Z" fill="#F36600"/>
<path d="M367.085 143.7L313.83 63.4428H374.511L398.063 103.733L421.615 63.4428H479.714L427.434 142.718L486.819 232.056H426.149L397.099 183.332L369.668 232.056H308.998L367.085 143.7Z" fill="#F36600"/>
<path d="M668.817 232.056H613.3L586.845 119.979H586.202L560.056 232.056H504.539L452.271 63.4428H507.764L535.85 172.609H536.493L560.377 63.4428H612.657L637.185 172.286H637.839L665.259 63.4428H721.097L668.817 232.056Z" fill="#F36600"/>
<path d="M787.23 194.689C812.721 194.689 820.79 169.362 820.79 147.965C820.79 126.568 812.721 100.858 787.23 100.858C761.738 100.858 753.991 126.52 753.991 147.965C753.991 169.41 761.738 194.689 787.23 194.689ZM787.23 58.5667C839.188 58.5667 875.652 97.2277 875.652 147.917C875.652 198.607 839.188 236.932 787.23 236.932C735.271 236.932 699.164 198.595 699.164 147.917C699.164 97.2397 735.307 58.5667 787.23 58.5667Z" fill="#F36600"/>
<path d="M874.022 63.4308H927.254V93.0106H927.897C935.978 71.5656 954.686 60.1961 978.249 60.1961C982.588 60.145 986.918 60.579 991.162 61.49V111.808C984.351 109.749 977.29 108.652 970.18 108.549C943.071 108.549 928.861 127.395 928.861 148.516V232.008H874.022V63.4308Z" fill="#F36600"/>
<path d="M977.273 0.0901031V232.056H1032.15V178.132L1046.35 164.163L1087.33 232.056H1153.5L1084.43 127.119L1145.74 63.4429H1082.18L1032.15 119.655V0.0901031H977.273Z" fill="#F36600"/>
<path d="M1200.19 171.627H1138.93V232.056H1200.19V171.627Z" fill="#F36600"/>
</g>
<path d="M712.219 341.39V290.29H718.205L752.004 332.265H748.865V290.29H756.165V341.39H750.179L716.38 299.415H719.519V341.39H712.219Z" fill="#333333"/>
<path d="M673.978 341.974C670.085 341.974 666.459 341.317 663.101 340.003C659.792 338.689 656.92 336.864 654.487 334.528C652.054 332.144 650.156 329.37 648.793 326.206C647.43 323.043 646.749 319.588 646.749 315.84C646.749 312.093 647.43 308.638 648.793 305.474C650.156 302.311 652.054 299.561 654.487 297.225C656.92 294.841 659.792 292.991 663.101 291.677C666.41 290.363 670.036 289.706 673.978 289.706C677.871 289.706 681.448 290.363 684.709 291.677C688.018 292.943 690.89 294.768 693.323 297.152C695.805 299.488 697.703 302.238 699.017 305.401C700.38 308.565 701.061 312.044 701.061 315.84C701.061 319.636 700.38 323.116 699.017 326.279C697.703 329.443 695.805 332.217 693.323 334.601C690.89 336.937 688.018 338.762 684.709 340.076C681.448 341.342 677.871 341.974 673.978 341.974ZM673.978 335.477C676.801 335.477 679.404 334.991 681.789 334.017C684.222 333.044 686.315 331.681 688.067 329.929C689.868 328.129 691.255 326.036 692.228 323.651C693.25 321.267 693.761 318.663 693.761 315.84C693.761 313.018 693.25 310.414 692.228 308.029C691.255 305.645 689.868 303.576 688.067 301.824C686.315 300.024 684.222 298.637 681.789 297.663C679.404 296.69 676.801 296.203 673.978 296.203C671.107 296.203 668.454 296.69 666.021 297.663C663.636 298.637 661.544 300.024 659.743 301.824C657.942 303.576 656.531 305.645 655.509 308.029C654.536 310.414 654.049 313.018 654.049 315.84C654.049 318.663 654.536 321.267 655.509 323.651C656.531 326.036 657.942 328.129 659.743 329.929C661.544 331.681 663.636 333.044 666.021 334.017C668.454 334.991 671.107 335.477 673.978 335.477Z" fill="#333333"/>
<path d="M628.311 341.39V290.29H635.611V341.39H628.311Z" fill="#333333"/>
<path d="M597.864 341.974C593.97 341.974 590.247 341.39 586.695 340.222C583.142 339.006 580.344 337.448 578.3 335.55L581.001 329.856C582.947 331.56 585.429 332.971 588.447 334.09C591.464 335.21 594.603 335.769 597.864 335.769C600.832 335.769 603.241 335.429 605.091 334.747C606.94 334.066 608.303 333.141 609.179 331.973C610.055 330.757 610.493 329.394 610.493 327.885C610.493 326.133 609.909 324.722 608.741 323.651C607.621 322.581 606.137 321.729 604.288 321.096C602.487 320.415 600.492 319.831 598.302 319.344C596.112 318.858 593.897 318.298 591.659 317.665C589.469 316.984 587.449 316.132 585.6 315.11C583.799 314.088 582.339 312.726 581.22 311.022C580.1 309.27 579.541 307.032 579.541 304.306C579.541 301.678 580.222 299.269 581.585 297.079C582.996 294.841 585.137 293.064 588.009 291.75C590.929 290.388 594.627 289.706 599.105 289.706C602.073 289.706 605.018 290.096 607.938 290.874C610.858 291.653 613.388 292.772 615.53 294.232L613.121 300.072C610.931 298.612 608.619 297.566 606.186 296.933C603.752 296.252 601.392 295.911 599.105 295.911C596.233 295.911 593.873 296.276 592.024 297.006C590.174 297.736 588.812 298.71 587.936 299.926C587.108 301.143 586.695 302.506 586.695 304.014C586.695 305.815 587.254 307.251 588.374 308.321C589.542 309.392 591.026 310.244 592.827 310.876C594.676 311.509 596.696 312.093 598.886 312.628C601.076 313.115 603.266 313.675 605.456 314.307C607.694 314.94 609.714 315.767 611.515 316.789C613.364 317.811 614.848 319.174 615.968 320.877C617.087 322.581 617.647 324.771 617.647 327.447C617.647 330.027 616.941 332.436 615.53 334.674C614.118 336.864 611.928 338.641 608.96 340.003C606.04 341.317 602.341 341.974 597.864 341.974Z" fill="#333333"/>
<path d="M546.397 341.974C539.681 341.974 534.401 340.052 530.556 336.207C526.712 332.363 524.789 326.742 524.789 319.344V290.29H532.089V319.052C532.089 324.746 533.33 328.907 535.812 331.535C538.343 334.163 541.896 335.477 546.47 335.477C551.094 335.477 554.646 334.163 557.128 331.535C559.659 328.907 560.924 324.746 560.924 319.052V290.29H568.005V319.344C568.005 326.742 566.083 332.363 562.238 336.207C558.442 340.052 553.162 341.974 546.397 341.974Z" fill="#333333"/>
<path d="M482.739 341.39V290.29H490.039V335.039H517.706V341.39H482.739Z" fill="#333333"/>
<path d="M452.834 341.974C448.941 341.974 445.34 341.342 442.03 340.076C438.77 338.762 435.923 336.937 433.489 334.601C431.105 332.217 429.231 329.443 427.868 326.279C426.506 323.116 425.824 319.636 425.824 315.84C425.824 312.044 426.506 308.565 427.868 305.401C429.231 302.238 431.129 299.488 433.562 297.152C435.996 294.768 438.843 292.943 442.103 291.677C445.413 290.363 449.014 289.706 452.907 289.706C456.849 289.706 460.475 290.388 463.784 291.75C467.142 293.064 469.989 295.035 472.325 297.663L467.58 302.262C465.634 300.218 463.444 298.71 461.01 297.736C458.577 296.714 455.973 296.203 453.199 296.203C450.328 296.203 447.651 296.69 445.169 297.663C442.736 298.637 440.619 299.999 438.818 301.751C437.018 303.503 435.606 305.596 434.584 308.029C433.611 310.414 433.124 313.018 433.124 315.84C433.124 318.663 433.611 321.291 434.584 323.724C435.606 326.109 437.018 328.177 438.818 329.929C440.619 331.681 442.736 333.044 445.169 334.017C447.651 334.991 450.328 335.477 453.199 335.477C455.973 335.477 458.577 334.991 461.01 334.017C463.444 332.995 465.634 331.438 467.58 329.345L472.325 333.944C469.989 336.572 467.142 338.568 463.784 339.93C460.475 341.293 456.825 341.974 452.834 341.974Z" fill="#333333"/>
<path d="M370.744 341.39V290.29H376.73L410.529 332.265H407.39V290.29H414.69V341.39H408.704L374.905 299.415H378.044V341.39H370.744Z" fill="#333333"/>
<path d="M332.503 341.974C328.61 341.974 324.984 341.317 321.626 340.003C318.317 338.689 315.446 336.864 313.012 334.528C310.579 332.144 308.681 329.37 307.318 326.206C305.956 323.043 305.274 319.588 305.274 315.84C305.274 312.093 305.956 308.638 307.318 305.474C308.681 302.311 310.579 299.561 313.012 297.225C315.446 294.841 318.317 292.991 321.626 291.677C324.936 290.363 328.561 289.706 332.503 289.706C336.397 289.706 339.974 290.363 343.234 291.677C346.544 292.943 349.415 294.768 351.848 297.152C354.33 299.488 356.228 302.238 357.542 305.401C358.905 308.565 359.586 312.044 359.586 315.84C359.586 319.636 358.905 323.116 357.542 326.279C356.228 329.443 354.33 332.217 351.848 334.601C349.415 336.937 346.544 338.762 343.234 340.076C339.974 341.342 336.397 341.974 332.503 341.974ZM332.503 335.477C335.326 335.477 337.93 334.991 340.314 334.017C342.748 333.044 344.84 331.681 346.592 329.929C348.393 328.129 349.78 326.036 350.753 323.651C351.775 321.267 352.286 318.663 352.286 315.84C352.286 313.018 351.775 310.414 350.753 308.029C349.78 305.645 348.393 303.576 346.592 301.824C344.84 300.024 342.748 298.637 340.314 297.663C337.93 296.69 335.326 296.203 332.503 296.203C329.632 296.203 326.98 296.69 324.546 297.663C322.162 298.637 320.069 300.024 318.268 301.824C316.468 303.576 315.056 305.645 314.034 308.029C313.061 310.414 312.574 313.018 312.574 315.84C312.574 318.663 313.061 321.267 314.034 323.651C315.056 326.036 316.468 328.129 318.268 329.929C320.069 331.681 322.162 333.044 324.546 334.017C326.98 334.991 329.632 335.477 332.503 335.477Z" fill="#333333"/>
<path d="M280.6 341.974C276.707 341.974 273.105 341.342 269.796 340.076C266.535 338.762 263.688 336.937 261.255 334.601C258.87 332.217 256.997 329.443 255.634 326.279C254.271 323.116 253.59 319.636 253.59 315.84C253.59 312.044 254.271 308.565 255.634 305.401C256.997 302.238 258.895 299.488 261.328 297.152C263.761 294.768 266.608 292.943 269.869 291.677C273.178 290.363 276.78 289.706 280.673 289.706C284.615 289.706 288.241 290.388 291.55 291.75C294.908 293.064 297.755 295.035 300.091 297.663L295.346 302.262C293.399 300.218 291.209 298.71 288.776 297.736C286.343 296.714 283.739 296.203 280.965 296.203C278.094 296.203 275.417 296.69 272.935 297.663C270.502 298.637 268.384 299.999 266.584 301.751C264.783 303.503 263.372 305.596 262.35 308.029C261.377 310.414 260.89 313.018 260.89 315.84C260.89 318.663 261.377 321.291 262.35 323.724C263.372 326.109 264.783 328.177 266.584 329.929C268.384 331.681 270.502 333.044 272.935 334.017C275.417 334.991 278.094 335.477 280.965 335.477C283.739 335.477 286.343 334.991 288.776 334.017C291.209 332.995 293.399 331.438 295.346 329.345L300.091 333.944C297.755 336.572 294.908 338.568 291.55 339.93C288.241 341.293 284.591 341.974 280.6 341.974Z" fill="#333333"/>
<path d="M215.495 341.39V297.444C215.495 294.281 216.395 291.75 218.196 289.852C220.045 287.906 222.673 286.932 226.08 286.932C227.491 286.932 228.878 287.151 230.241 287.589C231.604 287.979 232.723 288.587 233.599 289.414L232.139 292.188C231.409 291.458 230.533 290.923 229.511 290.582C228.489 290.242 227.394 290.071 226.226 290.071C223.89 290.071 222.114 290.728 220.897 292.042C219.68 293.308 219.072 295.206 219.072 297.736V304.16L219.145 305.912V341.39H215.495ZM208.487 306.423V303.284H231.263V306.423H208.487Z" fill="#333333"/>
<path d="M184.389 341.682C180.739 341.682 177.478 340.855 174.607 339.2C171.784 337.546 169.521 335.258 167.818 332.338C166.163 329.418 165.336 326.085 165.336 322.337C165.336 318.541 166.163 315.208 167.818 312.336C169.521 309.416 171.784 307.129 174.607 305.474C177.478 303.82 180.739 302.992 184.389 302.992C188.039 302.992 191.299 303.82 194.171 305.474C197.042 307.129 199.305 309.416 200.96 312.336C202.614 315.208 203.442 318.541 203.442 322.337C203.442 326.085 202.614 329.418 200.96 332.338C199.305 335.258 197.042 337.546 194.171 339.2C191.299 340.855 188.039 341.682 184.389 341.682ZM184.389 338.397C187.309 338.397 189.937 337.74 192.273 336.426C194.609 335.064 196.434 333.166 197.748 330.732C199.062 328.299 199.719 325.501 199.719 322.337C199.719 319.125 199.062 316.327 197.748 313.942C196.434 311.509 194.609 309.635 192.273 308.321C189.937 306.959 187.309 306.277 184.389 306.277C181.469 306.277 178.841 306.959 176.505 308.321C174.217 309.635 172.392 311.509 171.03 313.942C169.716 316.327 169.059 319.125 169.059 322.337C169.059 325.501 169.716 328.299 171.03 330.732C172.392 333.166 174.217 335.064 176.505 336.426C178.841 337.74 181.469 338.397 184.389 338.397Z" fill="#333333"/>
<path d="M132.758 341.682C129.4 341.682 126.82 340.758 125.02 338.908C123.268 337.059 122.392 334.528 122.392 331.316V294.962H126.042V330.951C126.042 333.385 126.65 335.258 127.867 336.572C129.083 337.886 130.835 338.543 133.123 338.543C135.507 338.543 137.478 337.838 139.036 336.426L140.569 338.981C139.595 339.906 138.403 340.587 136.992 341.025C135.629 341.463 134.218 341.682 132.758 341.682ZM115.384 306.423V303.284H138.16V306.423H115.384Z" fill="#333333"/>
<path d="M91.8628 341.39V303.284H95.3668V313.723L95.0018 312.555C96.0725 309.489 97.8731 307.129 100.404 305.474C102.934 303.82 106.098 302.992 109.894 302.992V306.569C109.748 306.569 109.602 306.569 109.456 306.569C109.31 306.521 109.164 306.496 109.018 306.496C104.784 306.496 101.474 307.835 99.0898 310.511C96.7051 313.139 95.5128 316.814 95.5128 321.534V341.39H91.8628Z" fill="#333333"/>
<path d="M73.3203 341.39V332.703L73.1743 331.389V317.081C73.1743 313.529 72.201 310.828 70.2543 308.978C68.3563 307.129 65.558 306.204 61.8593 306.204C59.2313 306.204 56.7737 306.667 54.4863 307.591C52.2477 308.467 50.3253 309.611 48.7193 311.022L46.8943 308.394C48.7923 306.691 51.0797 305.377 53.7563 304.452C56.433 303.479 59.2313 302.992 62.1513 302.992C66.872 302.992 70.4977 304.185 73.0283 306.569C75.559 308.954 76.8243 312.507 76.8243 317.227V341.39H73.3203ZM59.5963 341.682C56.7736 341.682 54.316 341.244 52.2233 340.368C50.1793 339.444 48.5976 338.154 47.4783 336.499C46.4076 334.845 45.8723 332.947 45.8723 330.805C45.8723 328.859 46.3103 327.107 47.1863 325.549C48.111 323.943 49.6196 322.654 51.7123 321.68C53.805 320.658 56.6033 320.147 60.1073 320.147H74.1233V322.994H60.1803C56.2383 322.994 53.4643 323.724 51.8583 325.184C50.301 326.644 49.5223 328.469 49.5223 330.659C49.5223 333.093 50.447 335.039 52.2963 336.499C54.1456 337.959 56.7493 338.689 60.1073 338.689C63.3193 338.689 66.0203 337.959 68.2103 336.499C70.449 335.039 72.1036 332.922 73.1743 330.148L74.1963 332.63C73.1743 335.404 71.4223 337.619 68.9403 339.273C66.507 340.879 63.3923 341.682 59.5963 341.682Z" fill="#333333"/>
<path d="M19.3111 341.682C15.9531 341.682 12.9114 340.904 10.1861 339.346C7.50939 337.789 5.36806 335.575 3.76206 332.703C2.20473 329.783 1.42606 326.328 1.42606 322.337C1.42606 318.347 2.20473 314.916 3.76206 312.044C5.36806 309.124 7.50939 306.886 10.1861 305.328C12.9114 303.771 15.9531 302.992 19.3111 302.992C22.9124 302.992 26.1244 303.82 28.9471 305.474C31.8184 307.08 34.0571 309.343 35.6631 312.263C37.3177 315.183 38.1451 318.541 38.1451 322.337C38.1451 326.133 37.3177 329.491 35.6631 332.411C34.0571 335.331 31.8184 337.619 28.9471 339.273C26.1244 340.879 22.9124 341.682 19.3111 341.682ZM0.185059 355.552V303.284H3.68906V315.767L3.10506 322.41L3.83506 329.053V355.552H0.185059ZM19.0921 338.397C22.0121 338.397 24.6401 337.74 26.9761 336.426C29.3121 335.064 31.1371 333.166 32.4511 330.732C33.8137 328.299 34.4951 325.501 34.4951 322.337C34.4951 319.125 33.8137 316.327 32.4511 313.942C31.1371 311.509 29.3121 309.635 26.9761 308.321C24.6401 306.959 22.0121 306.277 19.0921 306.277C16.1721 306.277 13.5441 306.959 11.2081 308.321C8.92072 309.635 7.09573 311.509 5.73306 313.942C4.41906 316.327 3.76206 319.125 3.76206 322.337C3.76206 325.501 4.41906 328.299 5.73306 330.732C7.09573 333.166 8.92072 335.064 11.2081 336.426C13.5441 337.74 16.1721 338.397 19.0921 338.397Z" fill="#333333"/>
<defs>
<clipPath id="clip0_18_215">
<rect width="1200" height="236.842" fill="white" transform="translate(0.185059 0.0901031)"/>
</clipPath>
</defs>
</svg>
