<svg xmlns="http://www.w3.org/2000/svg" width="379" height="56" fill="none" viewBox="0 0 379 56"><path fill="#F16128" d="M0 0h56v56H0z"/><g fill="#fff" clip-path="url(#a)"><path d="M17 32.314v-3.397l22 1.537v4.421l-22-2.56ZM20.658 21.88v3.64l13.14.431v-4.313l-13.14.242ZM33.772 13.334v4.205l-9.185.459v-3.775l9.185-.89ZM33.77 38.596v4.07l-4.85-.889v-4.07l4.85.889Z"/></g><path fill="#282828" d="M90.395 28.428H78v-5.09L89.658 6.665h7.045V22.97h3.026v5.461h-3.026v4.796h-6.308v-4.799Zm.442-5.458V13.6l-6.197 9.37h6.197ZM117.654 22.047c0-2.805-1.55-4.352-3.947-4.352-2.396 0-3.947 1.55-3.947 4.352v11.177h-6.307V12.638h6.307v2.73c1.254-1.734 3.468-2.952 6.236-2.952 4.759 0 7.932 3.246 7.932 8.782v12.026h-6.271V22.047h-.003ZM137.463 33.52c-6.05 0-10.404-4.057-10.404-10.586 0-6.53 4.279-10.587 10.404-10.587 6.124 0 10.254 3.985 10.254 10.257 0 .59-.036 1.217-.111 1.844H133.33c.222 2.693 1.88 3.947 3.911 3.947 1.769 0 2.768-.885 3.284-1.991h6.715c-.996 4.021-4.649 7.12-9.777 7.12v-.003Zm-4.094-12.58h7.893c0-2.25-1.769-3.542-3.874-3.542-2.105 0-3.653 1.253-4.022 3.542h.003ZM152.035 17.878h-2.508v-5.24h2.508V7.621h6.307v5.017h4.133v5.24h-4.133v8.262c0 1.218.516 1.734 1.919 1.734h2.25v5.35h-3.209c-4.28 0-7.267-1.808-7.267-7.156v-8.19ZM173.246 7.105c0-1.92 1.512-3.431 3.764-3.431s3.725 1.512 3.725 3.43c0 1.92-1.512 3.396-3.725 3.396s-3.764-1.512-3.764-3.395Zm.591 5.536h6.307v20.586h-6.307V12.64ZM198.922 22.047c0-2.805-1.55-4.352-3.947-4.352-2.397 0-3.947 1.55-3.947 4.352v11.177h-6.307V12.638h6.307v2.73c1.254-1.734 3.467-2.952 6.235-2.952 4.76 0 7.933 3.246 7.933 8.782v12.026h-6.271V22.047h-.003ZM210.578 17.878h-2.508v-5.24h2.508V7.621h6.307v5.017h4.133v5.24h-4.133v8.262c0 1.218.516 1.734 1.919 1.734h2.25v5.35h-3.209c-4.28 0-7.267-1.808-7.267-7.156v-8.19ZM233.711 33.52c-6.05 0-10.404-4.057-10.404-10.586 0-6.53 4.279-10.587 10.404-10.587 6.124 0 10.254 3.985 10.254 10.257 0 .59-.036 1.217-.111 1.844h-14.276c.222 2.693 1.88 3.947 3.911 3.947 1.769 0 2.768-.885 3.284-1.991h6.715c-.996 4.021-4.649 7.12-9.777 7.12v-.003Zm-4.097-12.58h7.894c0-2.25-1.77-3.542-3.875-3.542s-3.653 1.253-4.022 3.542h.003ZM253.593 33.224h-6.308V12.638h6.308v3.431c1.439-2.177 3.689-3.652 6.457-3.652v6.676h-1.734c-2.987 0-4.721 1.032-4.721 4.574v9.555l-.002.002ZM270.894 12.344c3.062 0 5.239 1.401 6.346 3.21v-2.915h6.307v20.585h-6.307V30.31c-1.143 1.809-3.32 3.21-6.382 3.21-5.018 0-9.04-4.133-9.04-10.626 0-6.493 4.022-10.551 9.076-10.551v.002Zm1.844 5.498c-2.36 0-4.501 1.77-4.501 5.053 0 3.284 2.138 5.129 4.501 5.129 2.363 0 4.502-1.809 4.502-5.09 0-3.281-2.103-5.09-4.502-5.09v-.002ZM297.194 12.344c5.165 0 8.818 2.84 9.888 7.747h-6.715c-.516-1.44-1.55-2.36-3.284-2.36-2.249 0-3.799 1.77-3.799 5.2 0 3.431 1.55 5.201 3.799 5.201 1.734 0 2.73-.849 3.284-2.36h6.715c-1.07 4.76-4.72 7.746-9.888 7.746-6.049 0-10.329-4.057-10.329-10.587 0-6.529 4.28-10.587 10.329-10.587ZM311.433 17.878h-2.507v-5.24h2.507V7.621h6.308v5.017h4.132v5.24h-4.132v8.262c0 1.218.516 1.734 1.919 1.734h2.249v5.35H318.7c-4.279 0-7.267-1.808-7.267-7.156v-8.19ZM324.824 7.105c0-1.92 1.512-3.431 3.764-3.431s3.725 1.512 3.725 3.43c0 1.92-1.512 3.396-3.725 3.396s-3.764-1.512-3.764-3.395Zm.591 5.536h6.307v20.586h-6.307V12.64ZM341.092 12.64l4.462 14.684 4.463-14.683h6.715l-7.305 20.586h-7.783l-7.306-20.586H341.092ZM368.539 33.52c-6.05 0-10.404-4.057-10.404-10.586 0-6.53 4.279-10.587 10.404-10.587 6.124 0 10.254 3.985 10.254 10.257 0 .59-.036 1.217-.111 1.844h-14.276c.222 2.693 1.881 3.947 3.911 3.947 1.77 0 2.768-.885 3.284-1.991h6.715c-.996 4.021-4.649 7.12-9.777 7.12v-.003Zm-4.094-12.58h7.894c0-2.25-1.77-3.542-3.875-3.542s-3.653 1.253-4.022 3.542h.003ZM84.118 47.08c0 1.837-1.285 3.077-3.006 3.077-.965 0-1.791-.413-2.296-1.194v3.363H78V44.06h.78v1.194c.495-.802 1.332-1.24 2.332-1.24 1.72 0 3.006 1.24 3.006 3.066Zm-.816 0c0-1.4-.975-2.353-2.25-2.353s-2.25.954-2.25 2.353c0 1.4.965 2.353 2.25 2.353 1.286 0 2.25-.94 2.25-2.353ZM90.308 46.359v3.74h-.78v-.94c-.368.62-1.079 1-2.078 1-1.367 0-2.204-.71-2.204-1.756 0-.929.597-1.71 2.331-1.71h1.918v-.367c0-1.032-.586-1.596-1.71-1.596-.78 0-1.515.275-2.01.71l-.367-.608c.608-.516 1.504-.815 2.455-.815 1.562 0 2.445.78 2.445 2.342Zm-.816 1.928V47.3H87.6c-1.17 0-1.55.459-1.55 1.08 0 .7.561 1.137 1.525 1.137.965 0 1.597-.437 1.918-1.229ZM95.562 44.017v.791c-.067 0-.138-.01-.194-.01-1.262 0-2.032.801-2.032 2.225V50.1h-.816v-6.038h.781v1.184c.378-.803 1.148-1.23 2.261-1.23ZM100.478 49.733c-.321.286-.802.424-1.274.424-1.138 0-1.767-.643-1.767-1.756v-3.65h-1.078v-.688h1.078v-1.321h.816v1.32h1.837v.69h-1.837v3.603c0 .71.367 1.102 1.045 1.102.332 0 .665-.103.894-.31l.286.586ZM104.358 47.08c0-1.79 1.307-3.066 3.076-3.066 1.77 0 3.066 1.275 3.066 3.066s-1.296 3.077-3.066 3.077c-1.769 0-3.076-1.286-3.076-3.077Zm5.313 0c0-1.413-.954-2.353-2.239-2.353-1.286 0-2.25.94-2.25 2.353 0 1.413.964 2.353 2.25 2.353 1.285 0 2.239-.94 2.239-2.353ZM113.095 43.35v.71h1.859v.689h-1.837v5.348h-.816V44.75h-1.078v-.69h1.078v-.745c0-1.077.643-1.79 1.826-1.79.448 0 .908.126 1.205.378l-.276.607c-.229-.194-.551-.297-.894-.297-.7 0-1.067.39-1.067 1.137ZM118.432 46.083c0-2.399 1.837-4.133 4.306-4.133 1.308 0 2.434.47 3.179 1.343l-.964.907a2.817 2.817 0 0 0-2.147-.94c-1.664 0-2.869 1.17-2.869 2.823s1.205 2.823 2.869 2.823c.837 0 1.561-.31 2.147-.954l.964.919c-.745.872-1.871 1.342-3.19 1.342-2.455 0-4.292-1.734-4.292-4.133l-.003.003ZM126.607 46.083c0-2.377 1.837-4.133 4.327-4.133 2.491 0 4.327 1.745 4.327 4.133s-1.836 4.133-4.327 4.133c-2.49 0-4.327-1.756-4.327-4.133Zm7.153 0c0-1.642-1.205-2.823-2.823-2.823-1.618 0-2.823 1.183-2.823 2.823s1.205 2.823 2.823 2.823c1.618 0 2.823-1.183 2.823-2.823ZM143.984 42.063V50.1h-1.229l-4.43-5.44v5.44h-1.48v-8.037h1.229l4.43 5.44v-5.44h1.48ZM145.571 46.083c0-2.399 1.837-4.133 4.306-4.133 1.307 0 2.434.47 3.179 1.343l-.964.907a2.817 2.817 0 0 0-2.147-.94c-1.664 0-2.869 1.17-2.869 2.823s1.205 2.823 2.869 2.823c.837 0 1.561-.31 2.147-.954l.964.919c-.745.872-1.872 1.342-3.19 1.342-2.455 0-4.292-1.734-4.292-4.133l-.003.003ZM154.489 42.064h1.491v6.772h4.2v1.261h-5.694v-8.036l.003.003ZM161.184 46.599v-4.535h1.491v4.475c0 1.654.746 2.364 2.043 2.364 1.296 0 2.031-.71 2.031-2.364v-4.476h1.469V46.6c0 2.342-1.321 3.617-3.511 3.617-2.191 0-3.525-1.275-3.525-3.617h.002ZM169.632 49.252l.516-1.16c.643.517 1.664.884 2.653.884 1.25 0 1.78-.448 1.78-1.045 0-1.734-4.776-.597-4.776-3.582 0-1.297 1.032-2.399 3.236-2.399.964 0 1.975.251 2.674.71l-.47 1.16c-.724-.425-1.515-.633-2.215-.633-1.24 0-1.745.481-1.745 1.092 0 1.71 4.765.597 4.765 3.546 0 1.286-1.045 2.388-3.249 2.388-1.251 0-2.502-.389-3.169-.964v.003ZM177.532 42.063h1.492V50.1h-1.492v-8.037ZM180.619 46.083c0-2.377 1.836-4.133 4.327-4.133 2.491 0 4.327 1.745 4.327 4.133s-1.836 4.133-4.327 4.133c-2.491 0-4.327-1.756-4.327-4.133Zm7.153 0c0-1.642-1.205-2.823-2.823-2.823-1.618 0-2.823 1.183-2.823 2.823s1.205 2.823 2.823 2.823c1.618 0 2.823-1.183 2.823-2.823ZM198 42.063V50.1h-1.229l-4.43-5.44v5.44h-1.48v-8.037h1.229l4.43 5.44v-5.44H198Z"/><defs><clipPath id="a"><path fill="#fff" d="M17 13.334h22v29.332H17z"/></clipPath></defs></svg>